<svg xmlns="http://www.w3.org/2000/svg" viewBox="0 0 512 512">
  <defs>
    <linearGradient id="primaryGrad" x1="0%" y1="0%" x2="100%" y2="100%">
      <stop offset="0%" stop-color="#3b82f6" />
      <stop offset="100%" stop-color="#1d4ed8" />
    </linearGradient>
    <linearGradient id="accentGrad" x1="0%" y1="0%" x2="100%" y2="100%">
      <stop offset="0%" stop-color="#60a5fa" />
      <stop offset="100%" stop-color="#2563eb" />
    </linearGradient>
  </defs>
  <!-- Background Base -->
  <rect width="512" height="512" rx="128" fill="url(#primaryGrad)" />
  
  <!-- Inner Page Paper -->
  <rect x="96" y="128" width="320" height="288" rx="32" fill="#ffffff" />
  
  <!-- Header Trim -->
  <path d="M 96 160 A 32 32 0 0 1 128 128 L 384 128 A 32 32 0 0 1 416 160 L 416 192 L 96 192 Z" fill="#1e3a8a" />
  
  <!-- Binder Rings -->
  <rect x="144" y="96" width="24" height="48" rx="12" fill="#e2e8f0" />
  <rect x="344" y="96" width="24" height="48" rx="12" fill="#e2e8f0" />
  
  <!-- Course Block Elements -->
  <rect x="136" y="224" width="64" height="48" rx="8" fill="url(#accentGrad)" />
  <rect x="224" y="256" width="64" height="96" rx="8" fill="#3b82f6" />
  <rect x="312" y="224" width="64" height="64" rx="8" fill="#93c5fd" />
  <rect x="136" y="304" width="64" height="64" rx="8" fill="#1d4ed8" />
  <rect x="312" y="320" width="64" height="48" rx="8" fill="url(#accentGrad)" />
</svg>